# File created by Blade
# Date/Time:  Wed Apr 08 16:19:59 2015
# Frame Rate: 120.000 fps
#------------------------------------------------------
:FULLY-SPECIFIED
:DEGREES
793
root -22.738231 3.825011 0.608420 319.141114 -85.166848 -404.748226
Spine -8.480454 -7.506038 -3.085774
Head 11.639724 -5.718625 -4.830764
LeftShoulder -0.030416 12.673502 26.319035
LeftArm 113.315821 -18.289909 -135.861465
LeftForeArm -3.805732 0.000000 146.638171
LeftHand 21.588750 -0.000000 48.282109
LeftHandThumb1 -26.253704 0.000000 33.147579
RightShoulder 1.996744 31.627566 -21.046654
RightArm 63.486440 47.946324 116.210892
RightForeArm 7.980024 -0.000000 148.082809
RightHand 30.336686 -0.000000 -58.624959
RightHandThumb1 -24.326973 -0.000000 -32.862282
LeftUpLeg -63.033737 -2.779427 16.923646
LeftLeg 133.931091 -0.000000 -0.000000
LeftFoot 13.902629 -23.203281 -18.359751
LeftToeBase -46.900346 -0.000000 0.000000
RightUpLeg -61.951571 -4.688794 -16.364981
RightLeg 136.750291 -0.000000 -0.000000
RightFoot 7.262717 5.730330 4.146508
RightToeBase -32.147262 -0.000000 0.000000
794
root -22.716878 3.827122 0.609757 320.342670 -85.094480 -406.015143
Spine -8.376257 -7.544554 -3.040278
Head 11.892545 -5.723350 -4.766977
LeftShoulder -0.123256 12.272476 26.631233
LeftArm 113.731009 -18.285004 -135.664504
LeftForeArm -3.654718 -0.000000 146.674251
LeftHand 21.442166 -0.000000 49.442123
LeftHandThumb1 -26.253704 0.000000 33.147579
RightShoulder 1.701601 31.787482 -21.468655
RightArm 64.171720 48.025787 116.572019
RightForeArm 8.117384 -0.000000 148.020525
RightHand 30.488779 -0.000000 -58.250539
RightHandThumb1 -24.326973 -0.000000 -32.862282
LeftUpLeg -62.762025 -2.871119 16.846026
LeftLeg 133.894029 -0.000000 -0.000000
LeftFoot 12.997094 -22.712339 -17.992489
LeftToeBase -45.930465 -0.000000 0.000000
RightUpLeg -61.776444 -4.662353 -16.279907
RightLeg 136.662377 -0.000000 -0.000000
RightFoot 7.206176 5.670388 4.139796
RightToeBase -32.097602 -0.000000 0.000000
795
root -22.696889 3.830809 0.609526 321.534963 -85.052587 -407.343934
Spine -8.174054 -7.571749 -2.980487
Head 12.164262 -5.735465 -4.639470
LeftShoulder -0.236711 11.851037 26.928403
LeftArm 114.244633 -18.237890 -135.722309
LeftForeArm -4.557311 -0.000000 146.676107
LeftHand 22.214691 -0.000000 48.827881
LeftHandThumb1 -26.253704 0.000000 33.147579
RightShoulder 1.429678 32.158522 -21.838673
RightArm 64.519917 48.143546 116.647387
RightForeArm 8.296074 -0.000000 147.980328
RightHand 30.693667 -0.000000 -58.433352
RightHandThumb1 -24.326973 -0.000000 -32.862282
LeftUpLeg -62.506403 -2.949191 16.839930
LeftLeg 133.823891 -0.000000 -0.000000
LeftFoot 12.485825 -22.125528 -17.678439
LeftToeBase -44.956904 -0.000000 0.000000
RightUpLeg -61.547944 -4.589176 -16.178758
RightLeg 136.573638 -0.000000 -0.000000
RightFoot 7.159352 5.616358 4.185936
RightToeBase -32.005005 -0.000000 0.000000
796
root -22.678565 3.831976 0.610608 322.771468 -84.999618 -408.714769
Spine -7.968453 -7.639103 -2.917818
Head 12.450060 -5.835151 -4.524829
LeftShoulder -0.384144 11.440723 27.231085
LeftArm 114.776630 -18.214268 -135.796553
LeftForeArm -5.058847 -0.000000 146.568265
LeftHand 22.676898 -0.000000 48.397717
LeftHandThumb1 -26.253704 0.000000 33.147579
RightShoulder 1.210715 32.302532 -22.151536
RightArm 65.027055 48.105734 116.753128
RightForeArm 8.300800 -0.000000 148.035494
RightHand 30.527017 -0.000000 -58.930353
RightHandThumb1 -24.326973 -0.000000 -32.862282
LeftUpLeg -62.364266 -3.039572 16.855660
LeftLeg 133.708637 -0.000000 -0.000000
LeftFoot 12.404964 -21.440089 -17.643993
LeftToeBase -44.483592 -0.000000 0.000000
RightUpLeg -61.339289 -4.523970 -16.097548
RightLeg 136.481572 -0.000000 -0.000000
RightFoot 7.191774 5.585773 4.302938
RightToeBase -31.947128 -0.000000 0.000000
797
root -22.658083 3.834341 0.612863 323.818741 -84.937637 -409.898050
Spine -7.775313 -7.720917 -2.876734
Head 12.853667 -5.938281 -4.348597
LeftShoulder -0.510837 10.850479 27.449460
LeftArm 115.199692 -18.463156 -135.534361
LeftForeArm -4.986516 0.000000 146.487116
LeftHand 22.698442 -0.000000 48.689001
LeftHandThumb1 -26.253704 0.000000 33.147579
RightShoulder 1.049820 32.637167 -22.388826
RightArm 65.205615 48.186682 116.680201
RightForeArm 8.359009 -0.000000 148.135375
RightHand 30.372508 0.000000 -59.413480
RightHandThumb1 -24.326973 -0.000000 -32.862282
LeftUpLeg -62.293352 -3.136215 16.876797
LeftLeg 133.592044 -0.000000 -0.000000
LeftFoot 12.374384 -20.641174 -17.633921
LeftToeBase -42.092524 -0.000000 0.000000
RightUpLeg -61.127974 -4.457808 -16.037033
RightLeg 136.385554 -0.000000 -0.000000
RightFoot 7.203286 5.537063 4.376530
RightToeBase -31.917667 -0.000000 0.000000
798
root -22.637172 3.835959 0.619320 324.289649 -84.859907 -410.518102
Spine -7.542644 -7.741879 -2.874527
Head 13.188398 -6.146316 -4.214367
LeftShoulder -0.631866 10.540072 27.762888
LeftArm 115.835603 -18.577063 -135.588403
LeftForeArm -4.854759 -0.000000 146.483479
LeftHand 22.598800 -0.000000 49.518875
LeftHandThumb1 -26.253704 0.000000 33.147579
RightShoulder 0.849956 32.933188 -22.656926
RightArm 65.319690 48.272779 116.614694
RightForeArm 8.398633 -0.000000 148.277251
RightHand 30.231613 -0.000000 -59.620426
RightHandThumb1 -24.326973 -0.000000 -32.862282
LeftUpLeg -62.261177 -3.219085 16.803426
LeftLeg 133.468860 -0.000000 -0.000000
LeftFoot 12.456025 -20.021695 -17.382824
LeftToeBase -41.527535 -0.000000 0.000000
RightUpLeg -60.920328 -4.387881 -16.048247
RightLeg 136.292552 -0.000000 -0.000000
RightFoot 7.244415 5.497416 4.532634
RightToeBase -31.961119 -0.000000 0.000000
799
root -22.618513 3.837895 0.624282 324.799171 -84.781299 -411.164344
Spine -7.315906 -7.787201 -2.854730
Head 13.503407 -6.345261 -4.103157
LeftShoulder -0.767276 10.301795 28.083072
LeftArm 116.640721 -18.665106 -135.919586
LeftForeArm -4.889892 -0.000000 146.419199
LeftHand 22.495803 0.000000 50.188228
LeftHandThumb1 -26.253704 0.000000 33.147579
RightShoulder 0.660262 33.067964 -22.960497
RightArm 65.614272 48.347703 116.828296
RightForeArm 8.499949 0.000000 148.401825
RightHand 30.222332 0.000000 -59.849599
RightHandThumb1 -24.326973 -0.000000 -32.862282
LeftUpLeg -62.287934 -3.303253 16.769755
LeftLeg 133.384351 -0.000000 -0.000000
LeftFoot 12.700490 -19.795605 -17.057117
LeftToeBase -41.554339 -0.000000 0.000000
RightUpLeg -60.730446 -4.334604 -16.066865
RightLeg 136.220453 -0.000000 -0.000000
RightFoot 7.300517 5.493333 4.682160
RightToeBase -31.960070 -0.000000 0.000000
800
root -22.600125 3.839034 0.633291 324.675827 -84.679685 -411.178879
Spine -7.072675 -7.816635 -2.908985
Head 13.837652 -6.613867 -3.996310
LeftShoulder -0.937076 10.054263 28.361382
LeftArm 117.469238 -18.757236 -136.215845
LeftForeArm -5.071056 0.000000 146.345958
LeftHand 22.376692 -0.000000 50.715229
LeftHandThumb1 -26.253704 0.000000 33.147579
RightShoulder 0.462475 33.352348 -23.198532
RightArm 65.650997 48.477797 116.834198
RightForeArm 8.694518 -0.000000 148.444647
RightHand 30.385898 -0.000000 -59.987684
RightHandThumb1 -24.326973 -0.000000 -32.862282
LeftUpLeg -62.336767 -3.343298 16.612352
LeftLeg 133.299537 -0.000000 -0.000000
LeftFoot 13.108154 -19.775181 -16.653800
LeftToeBase -41.718655 -0.000000 0.000000
RightUpLeg -60.548734 -4.267672 -16.169522
RightLeg 136.157691 -0.000000 -0.000000
RightFoot 7.361151 5.499300 4.846505
RightToeBase -31.956243 -0.000000 0.000000
801
root -22.581324 3.841128 0.644336 324.097050 -84.582209 -410.751078
Spine -6.816563 -7.812525 -2.992258
Head 14.187888 -6.864696 -3.892452
LeftShoulder -1.116725 9.626318 28.582438
LeftArm 118.189869 -18.994330 -136.463670
LeftForeArm -5.172271 -0.000000 146.271976
LeftHand 22.222461 0.000000 51.275088
LeftHandThumb1 -26.253704 0.000000 33.147579
RightShoulder 0.296012 33.592976 -23.422157
RightArm 65.696389 48.661361 116.877592
RightForeArm 8.868646 -0.000000 148.498810
RightHand 30.313437 -0.000000 -60.144585
RightHandThumb1 -24.326973 -0.000000 -32.862282
LeftUpLeg -62.367465 -3.389222 16.450931
LeftLeg 133.267222 -0.000000 -0.000000
LeftFoot 13.401480 -20.018328 -16.088960
LeftToeBase -41.103393 -0.000000 0.000000
RightUpLeg -60.368630 -4.175365 -16.318674
RightLeg 136.104121 -0.000000 -0.000000
RightFoot 7.431196 5.529707 4.983303
RightToeBase -32.032848 -0.000000 0.000000
802
root -22.560680 3.842232 0.655172 323.093616 -84.464282 -409.870483
Spine -6.574740 -7.821660 -3.139742
Head 14.516013 -7.130263 -3.773582
LeftShoulder -1.361353 9.428211 28.833708
LeftArm 119.024586 -19.101294 -136.801517
LeftForeArm -5.156136 -0.000000 146.262613
LeftHand 21.946007 0.000000 52.343651
LeftHandThumb1 -26.253704 0.000000 33.147579
RightShoulder 0.089232 33.559914 -23.656427
RightArm 66.060634 48.721445 117.241027
RightForeArm 9.043252 -0.000000 148.523935
RightHand 30.215791 -0.000000 -60.351684
RightHandThumb1 -24.326973 -0.000000 -32.862282
LeftUpLeg -62.429600 -3.384070 16.184787
LeftLeg 133.266097 -0.000000 -0.000000
LeftFoot 13.617481 -20.119272 -15.377828
LeftToeBase -41.879112 -0.000000 0.000000
RightUpLeg -60.226384 -4.093985 -16.509508
RightLeg 136.057931 -0.000000 -0.000000
RightFoot 7.517812 5.549883 5.113061
RightToeBase -32.113342 -0.000000 0.000000
803
root -22.541468 3.842038 0.665685 321.903890 -84.325335 -408.786787
Spine -6.346415 -7.826944 -3.322555
Head 14.890092 -7.395292 -3.659195
LeftShoulder -1.609970 9.094452 29.039124
LeftArm 119.735537 -19.376031 -136.978502
LeftForeArm -5.062779 -0.000000 146.236666
LeftHand 21.640070 -0.000000 53.246258
LeftHandThumb1 -26.253704 0.000000 33.147579
RightShoulder -0.139391 33.673912 -23.882799
RightArm 66.208111 48.838562 117.450970
RightForeArm 9.258262 0.000000 148.487029
RightHand 30.321360 -0.000000 -60.457546
RightHandThumb1 -24.326973 -0.000000 -32.862282
LeftUpLeg -62.494539 -3.384388 15.907933
LeftLeg 133.270492 -0.000000 -0.000000
LeftFoot 13.840358 -20.192037 -14.906217
LeftToeBase -42.238408 -0.000000 0.000000
RightUpLeg -60.111532 -4.033756 -16.727324
RightLeg 136.028745 -0.000000 -0.000000
RightFoot 7.594532 5.573820 5.182092
RightToeBase -32.174514 -0.000000 0.000000
804
root -22.520709 3.842974 0.678528 320.501631 -84.168461 -407.509953
Spine -6.100336 -7.822194 -3.533401
Head 15.296007 -7.593692 -3.557756
LeftShoulder -1.860161 8.990840 29.284825
LeftArm 120.494802 -19.534398 -137.330176
LeftForeArm -4.975675 -0.000000 146.310961
LeftHand 21.121332 -0.000000 54.916006
LeftHandThumb1 -26.253704 0.000000 33.147579
RightShoulder -0.367664 33.758903 -24.116872
RightArm 66.313404 48.981783 117.612863
RightForeArm 9.334471 -0.000000 148.449905
RightHand 30.437577 -0.000000 -60.612724
RightHandThumb1 -24.326973 -0.000000 -32.862282
LeftUpLeg -62.558266 -3.367628 15.518417
LeftLeg 133.278349 -0.000000 -0.000000
LeftFoot 14.211504 -19.931680 -14.706975
LeftToeBase -42.599043 -0.000000 0.000000
RightUpLeg -59.970089 -3.981614 -16.977685
RightLeg 135.992053 -0.000000 -0.000000
RightFoot 7.660219 5.574263 5.235978
RightToeBase -32.183852 -0.000000 0.000000
805
root -22.503879 3.842242 0.692052 319.218696 -84.028435 -406.368439
Spine -5.819371 -7.777276 -3.710040
Head 15.735731 -7.895826 -3.559475
LeftShoulder -2.104217 9.005957 29.419824
LeftArm 121.299408 -19.634133 -137.540830
LeftForeArm -4.896088 -0.000000 146.260844
LeftHand 21.259291 -0.000000 56.252130
LeftHandThumb1 -26.253704 0.000000 33.147579
RightShoulder -0.650166 33.673443 -24.446521
RightArm 66.625801 49.083923 117.955796
RightForeArm 9.232601 0.000000 148.440834
RightHand 30.364106 -0.000000 -60.906842
RightHandThumb1 -24.326973 -0.000000 -32.862282
LeftUpLeg -62.612102 -3.348977 15.181542
LeftLeg 133.292892 -0.000000 -0.000000
LeftFoot 14.660025 -19.860515 -14.652596
LeftToeBase -42.643550 -0.000000 0.000000
RightUpLeg -59.831615 -3.932466 -17.203600
RightLeg 135.965486 -0.000000 -0.000000
RightFoot 7.726731 5.557589 5.279386
RightToeBase -32.199862 -0.000000 0.000000
